<?xml version="1.0" standalone="no"?>
<!DOCTYPE svg PUBLIC "-//W3C//DTD SVG 20010904//EN"
 "http://www.w3.org/TR/2001/REC-SVG-20010904/DTD/svg10.dtd">
<svg version="1.0" xmlns="http://www.w3.org/2000/svg"
 width="200.000000pt" height="200.000000pt" viewBox="0 0 200.000000 200.000000"
 preserveAspectRatio="xMidYMid meet">
<metadata>
Created by potrace 1.11, written by Peter Selinger 2001-2013
</metadata>
<g transform="translate(0.000000,200.000000) scale(0.100000,-0.100000)"
fill="#000000" stroke="none">
<path d="M53 1234 c-6 -15 -9 -384 -3 -385 16 -3 257 -4 267 -1 8 3 13 21 13
46 l0 42 -85 -1 c-70 -1 -85 2 -86 14 -1 9 -1 78 -1 154 -1 75 -4 137 -7 138
-37 6 -94 2 -98 -7z"/>
<path d="M370 1235 c-4 -5 -6 -22 -5 -37 2 -15 -1 -30 -6 -33 -5 -4 -9 -2 -9
4 0 5 -11 0 -25 -13 -14 -13 -25 -30 -25 -39 0 -9 -4 -19 -10 -22 -15 -9 -12
-73 5 -108 8 -18 28 -39 44 -48 19 -11 28 -25 28 -40 1 -13 1 -30 2 -36 1 -10
27 -13 95 -13 102 0 161 15 196 50 64 64 75 190 23 264 -44 62 -90 80 -206 81
-54 0 -102 -4 -107 -10z m199 -96 c37 -40 46 -97 24 -149 -15 -36 -37 -51 -77
-54 -41 -4 -45 5 -17 35 20 22 35 76 27 100 -2 8 -7 26 -10 42 -4 15 -13 27
-21 27 -7 0 -17 5 -20 10 -4 6 10 10 34 10 28 0 46 -6 60 -21z m-125 1 c18 -7
26 -17 26 -34 0 -14 6 -29 14 -33 8 -4 15 -17 17 -28 3 -28 -19 -78 -31 -70
-14 9 -12 24 5 41 12 12 12 18 3 27 -32 30 -67 39 -122 33 -36 -5 -56 -4 -56
3 0 5 9 13 21 16 11 4 24 17 28 29 10 25 53 32 95 16z m-114 -121 c0 -10 -4
-20 -9 -23 -10 -7 -21 17 -21 46 0 17 3 18 15 8 8 -7 15 -21 15 -31z m105 -43
c32 -31 -41 -50 -82 -21 -12 9 -20 21 -17 28 6 17 81 12 99 -7z"/>
<path d="M766 1240 c-9 -4 -12 -50 -12 -195 l1 -190 95 -3 c52 -2 111 1 130 7
52 15 117 84 125 131 9 54 4 120 -12 152 -14 30 -84 90 -111 96 -28 6 -202 7
-216 2z m192 -96 c28 -19 56 -84 43 -97 -5 -5 -7 -15 -4 -23 6 -16 -26 -71
-46 -80 -9 -3 -31 -8 -48 -9 l-33 -3 0 114 0 114 33 0 c18 0 43 -7 55 -16z"/>
<path d="M1275 1243 c-26 -7 -76 -42 -95 -67 -86 -115 -25 -301 107 -322 93
-15 142 -4 193 45 22 21 40 42 40 48 0 6 -21 18 -47 28 l-46 18 -19 -26 c-22
-31 -76 -44 -108 -27 -27 14 -49 65 -48 111 2 105 90 150 156 79 l20 -21 41
20 c23 12 41 26 41 31 0 15 -53 60 -89 76 -32 14 -105 17 -146 7z"/>
<path d="M1681 1235 c-9 -11 -151 -369 -151 -379 0 -4 19 -6 42 -4 42 3 42 3
65 68 13 35 27 68 32 73 12 12 93 -11 109 -31 23 -30 12 -43 -60 -76 -86 -40
-258 -93 -281 -87 -5 1 -6 -2 -4 -6 3 -5 59 -8 125 -7 96 0 125 4 147 18 25
16 26 16 23 -1 -3 -16 5 -18 77 -18 88 -1 122 11 154 51 41 52 19 94 -71 134
-44 19 -47 23 -76 103 -57 155 -65 170 -96 172 -15 0 -31 -4 -35 -10z m78
-223 c1 -10 -9 -12 -41 -8 -22 3 -42 7 -44 8 -1 2 8 27 20 56 l21 53 22 -48
c12 -26 22 -54 22 -61z"/>
</g>
</svg>
